<svg id="Layer_1" data-name="Layer 1" xmlns="http://www.w3.org/2000/svg" viewBox="0 0 165.76 165.82"><defs><style>.cls-1{fill:#015fbb;}.cls-2{fill:#019af6;}.cls-3{fill:#0181dd;}.cls-4{fill:#0179d5;}.cls-5{fill:#015fba;}.cls-6{fill:#0067c2;}.cls-7{fill:#0087e4;}.cls-8{fill:#0093ef;}.cls-9{fill:#0072ce;}.cls-10{fill:#006dc9;}.cls-11{fill:#018de9;}.cls-12{fill:#0299f5;}.cls-13{fill:#006bc6;}.cls-14{fill:#0164c0;}</style></defs><path class="cls-1" d="M216.43,433.37c-8,1-13.21-2.6-16.36-9.73v-58.9c2.08-4.73,5.34-8.21,10.36-9.82H217v8.64l-3.26.09c-3.22.1-4.9,1.67-4.91,4.85q0,25.69,0,51.37c0,3.19,1.69,4.76,4.91,4.87l2.71.09Z" transform="translate(-200.07 -354.92)"/><path class="cls-2" d="M355.47,354.92c5,1.86,8.86,4.81,10,10.34a20.33,20.33,0,0,1,.34,4.05q0,24.53,0,49c0,10.31-5.54,15.58-15.81,15v-8.54l2.44-.1c2.89-.16,4.61-1.72,4.62-4.59q.06-26,0-51.9c0-2.87-1.73-4.44-4.62-4.59l-2.44-.09v-8.64Z" transform="translate(-200.07 -354.92)"/><path class="cls-3" d="M302.58,433.37c-9.55.49-15.26-4.93-15.27-14.49,0-15.71.26-31.42-.1-47.12-.19-8.23,2.44-14,10.46-16.84h4.91v8.64c-5.64.3-6.54,1.24-6.54,6.85V418c0,5.61.9,6.55,6.54,6.86Z" transform="translate(-200.07 -354.92)"/><path class="cls-4" d="M268.23,354.92c5,1.85,8.84,4.82,10,10.34a16.62,16.62,0,0,1,.33,3.23q0,25.74,0,51.48c0,7.95-5.84,13.61-13.62,13.4v-8.54c3.74-.6,4.9-1.86,4.9-5.51q0-25.12,0-50.26c0-3.65-1.17-4.92-4.9-5.5v-8.64Z" transform="translate(-200.07 -354.92)"/><path class="cls-5" d="M212.07,520.59c-5.23-.46-8.77-3.23-11-7.9-.29-.61-.23-1.45-1-1.78V452c1.84-3.61,3.82-7.06,7.86-8.69a11.08,11.08,0,0,1,4.14-1v8.58c-2.73.84-3.28,3-3.28,5.46,0,16.67.05,33.34,0,50,0,2.68.87,4.54,3.31,5.64Z" transform="translate(-200.07 -354.92)"/><path class="cls-6" d="M217,363.56v-8.64h18v8.64Z" transform="translate(-200.07 -354.92)"/><path class="cls-7" d="M302.58,363.56v-8.64h16.36v8.64Z" transform="translate(-200.07 -354.92)"/><path class="cls-8" d="M350,354.92v8.64H333.66v-8.64Z" transform="translate(-200.07 -354.92)"/><path class="cls-9" d="M265,354.92v8.64H249.69v-8.64Z" transform="translate(-200.07 -354.92)"/><path class="cls-10" d="M249.69,354.92v8.64H235v-8.64Z" transform="translate(-200.07 -354.92)"/><path class="cls-11" d="M333.66,354.92v8.64H318.94v-8.64Z" transform="translate(-200.07 -354.92)"/><path class="cls-11" d="M317.85,477.19c4.36-.24,4.36-.24,4.36-4.78q0-12.39,0-24.78c0-3.44,1.62-5.42,4.35-5.42s4.36,2.08,4.37,5.41q0,14.7,0,29.41v8.85l0,30a4.51,4.51,0,0,1-3,4.63,4,4,0,0,1-4.65-1.35,5.34,5.34,0,0,1-1-3.84q0-12.39,0-24.78c0-4.54,0-4.54-4.36-4.77Z" transform="translate(-200.07 -354.92)"/><path class="cls-4" d="M267.68,442.79c5.76,0,10.87,5.83,10.89,12.66.06,14.17,0,28.34,0,42.51,0,3.27.06,6.54,0,9.81A13,13,0,0,1,265,520.64c1-2.8.38-5.7.54-8.55,3.52-1,4.36-2,4.36-5.76,0-16.57,0-33.14,0-49.71,0-2.52-.74-4.38-2.94-5.62C268.49,448.38,267.32,445.52,267.68,442.79Z" transform="translate(-200.07 -354.92)"/><path class="cls-12" d="M345.11,477.18c5.33,0,10.66-.1,16-.06,2.79,0,4.63,1.75,4.71,4.2s-1.81,4.46-4.71,4.48c-5.33,0-10.66,0-16-.07Z" transform="translate(-200.07 -354.92)"/><path class="cls-9" d="M265.5,512.09c-.16,2.85.44,5.75-.54,8.55H246.42v-8.55Z" transform="translate(-200.07 -354.92)"/><path class="cls-13" d="M246.42,512.09v8.55H227.88v-8.55Z" transform="translate(-200.07 -354.92)"/><path class="cls-6" d="M216.43,433.37v-8.54h18v8.54Z" transform="translate(-200.07 -354.92)"/><path class="cls-8" d="M350,424.83v8.54H333.66v-8.54Z" transform="translate(-200.07 -354.92)"/><path class="cls-7" d="M302.58,433.37v-8.54h16.36v8.54Z" transform="translate(-200.07 -354.92)"/><path class="cls-14" d="M227.88,512.09v8.55l-15.81,0V512Z" transform="translate(-200.07 -354.92)"/><path class="cls-9" d="M265,424.83v8.54H249.69v-8.54Z" transform="translate(-200.07 -354.92)"/><path class="cls-10" d="M249.69,424.83v8.54H234.42v-8.54Z" transform="translate(-200.07 -354.92)"/><path class="cls-7" d="M317.85,477.19v8.54H302.58v-8.54Z" transform="translate(-200.07 -354.92)"/><path class="cls-11" d="M318.94,433.37v-8.54h14.72v8.54Z" transform="translate(-200.07 -354.92)"/><path class="cls-3" d="M302.58,477.19v8.54c-3.52,0-7,.12-10.55.07-2.89,0-4.78-1.93-4.7-4.48s1.92-4.17,4.7-4.2C295.54,477.07,299.06,477.16,302.58,477.19Z" transform="translate(-200.07 -354.92)"/><path class="cls-14" d="M212.07,450.9v-8.58l14.18,0v8.54Z" transform="translate(-200.07 -354.92)"/><path class="cls-10" d="M239.88,442.28h14.17v8.54H239.88Z" transform="translate(-200.07 -354.92)"/><path class="cls-8" d="M345.11,477.18v8.55l-14.15.15V477Z" transform="translate(-200.07 -354.92)"/><path class="cls-13" d="M239.88,442.28v8.54H226.25v-8.54Z" transform="translate(-200.07 -354.92)"/><path class="cls-9" d="M254.05,450.82v-8.54c4.55,0,9.12-.54,13.63.51-.36,2.73.81,5.59-.72,8.21Z" transform="translate(-200.07 -354.92)"/></svg>